<?xml version="1.0" standalone="no"?>
<!DOCTYPE svg PUBLIC "-//W3C//DTD SVG 20010904//EN"
 "http://www.w3.org/TR/2001/REC-SVG-20010904/DTD/svg10.dtd">
<svg version="1.0" xmlns="http://www.w3.org/2000/svg"
 width="564.000000pt" height="282.000000pt" viewBox="0 0 564.000000 282.000000"
 preserveAspectRatio="xMidYMid meet">

<g transform="translate(0.000000,282.000000) scale(0.100000,-0.100000)"
   fill="#ff6d38" stroke="none">
<path d="M2495 2519 c-118 -41 -210 -121 -263 -229 -23 -47 -28 -70 -30 -157
-3 -78 0 -115 14 -155 l17 -53 14 60 c7 33 23 89 35 124 l21 64 47 -100 c32
-67 57 -107 78 -121 16 -12 33 -22 36 -22 3 0 6 17 6 38 0 21 6 62 14 92 8 30
17 75 21 100 4 25 16 61 26 82 64 127 241 123 300 -6 23 -52 25 -146 3 -210
l-17 -48 91 -91 c61 -61 95 -88 106 -84 21 8 69 106 96 196 56 183 -9 374
-160 471 -81 52 -155 70 -283 70 -86 -1 -126 -5 -172 -21z"/>
<path d="M306 2332 c18 -95 90 -201 212 -310 74 -68 82 -78 92 -126 7 -36 10
-235 8 -609 -3 -649 12 -578 -143 -672 l-98 -60 529 -3 c582 -3 599 -1 753 58
44 17 114 53 156 80 l75 50 0 107 0 108 -20 -25 c-10 -14 -21 -23 -23 -20 -2
3 2 64 9 136 18 184 58 284 157 392 30 32 36 43 22 39 -51 -14 -187 -38 -198
-34 -20 7 159 171 233 213 38 22 70 46 70 54 0 8 -14 44 -30 79 -86 181 -245
331 -433 409 -139 58 -182 63 -667 72 -264 5 -469 13 -505 20 -33 7 -93 27
-133 45 l-73 34 7 -37z m1069 -487 c81 -7 153 -44 214 -110 59 -65 88 -136
104 -253 29 -222 -55 -415 -215 -488 -59 -27 -73 -29 -220 -32 l-158 -4 0 451
0 451 108 -5 c59 -3 134 -8 167 -10z"/>
<path d="M3241 2328 c20 -94 69 -168 182 -279 112 -111 127 -135 127 -214 0
-67 9 -71 78 -36 74 37 79 38 59 7 l-16 -24 48 18 c54 21 212 41 254 33 16 -3
39 0 51 7 16 8 69 11 177 8 142 -3 158 -5 211 -30 145 -68 218 -207 218 -416
0 -256 -127 -421 -340 -438 -30 -3 -70 -7 -88 -10 l-32 -5 26 -34 c67 -88 82
-214 40 -318 l-24 -58 91 7 c371 28 662 240 776 566 79 228 63 477 -46 698
-40 82 -61 109 -147 196 -103 102 -172 149 -292 198 -128 52 -178 57 -654 66
-480 9 -523 14 -635 66 -33 15 -63 30 -67 32 -3 1 -2 -16 3 -40z"/>
<path d="M2551 2063 c-10 -41 -15 -94 -12 -160 1 -36 8 -48 55 -93 30 -29 60
-66 66 -83 l10 -31 -32 32 c-17 19 -77 61 -132 95 -56 34 -123 83 -150 110
l-49 49 5 -59 c3 -32 8 -65 12 -74 6 -14 -2 -16 -71 -11 l-78 4 39 -38 c42
-42 59 -75 50 -99 -3 -8 -60 -46 -125 -85 -65 -39 -119 -73 -119 -77 0 -3 18
-3 41 1 55 9 115 -9 135 -40 13 -19 15 -39 11 -83 l-5 -59 73 48 c41 26 94 56
119 66 25 11 46 22 46 25 0 4 -16 10 -36 14 l-36 6 22 24 c39 42 116 68 210
72 l85 3 -70 -18 c-38 -10 -83 -26 -100 -34 l-30 -16 48 -12 c26 -7 47 -15 47
-19 -1 -3 -18 -18 -39 -32 -39 -27 -98 -96 -89 -104 2 -2 21 0 42 6 65 18 145
-10 171 -61 20 -39 19 -76 -5 -129 l-20 -44 35 6 c19 3 35 3 35 0 0 -3 -11
-21 -26 -40 -15 -20 -20 -33 -12 -33 24 1 103 41 131 67 l27 27 -30 12 c-27
12 -30 17 -30 58 0 34 -3 44 -13 40 -8 -3 -20 2 -27 11 -11 13 -11 25 -1 66 7
28 12 52 10 54 -2 1 -24 7 -49 12 l-45 9 53 12 c29 7 88 12 131 12 94 0 110
-11 93 -65 -5 -19 -9 -35 -9 -35 1 0 29 -4 61 -10 66 -11 106 -40 106 -76 0
-37 21 -40 48 -8 33 40 59 100 67 159 l7 50 -29 -27 c-31 -30 -53 -36 -53 -15
0 8 -9 22 -20 32 -11 10 -22 37 -26 64 -12 80 -49 137 -177 268 -129 131 -160
173 -178 238 -12 45 -25 34 -29 -25 -6 -73 -2 -80 108 -193 106 -110 132 -142
145 -182 5 -13 -1 -9 -15 10 -12 17 -34 41 -49 55 -239 229 -299 302 -299 367
0 36 -18 27 -29 -14z m339 -473 c40 -40 52 -70 27 -70 -21 0 -56 29 -72 60
-32 62 -12 67 45 10z"/>
<path d="M3970 1780 c-11 -7 -5 -10 23 -10 20 0 37 5 37 10 0 13 -40 13 -60 0z"/>
<path d="M3690 1713 c-30 -20 -73 -51 -96 -70 -49 -40 -89 -45 -78 -10 3 12
11 28 16 35 7 8 7 12 1 12 -22 0 -164 -162 -193 -220 -34 -67 -31 -67 48 -3
101 82 251 144 346 142 l51 -1 -55 -12 c-144 -33 -283 -120 -418 -261 -51 -53
-92 -99 -92 -103 1 -4 26 -25 57 -47 30 -22 64 -46 74 -53 16 -12 21 -8 50 50
84 167 187 292 271 328 63 27 155 29 215 5 39 -16 43 -15 82 4 56 29 154 51
230 51 l64 0 -24 26 c-37 39 -175 104 -244 113 -60 9 -140 1 -205 -18 -19 -6
-41 -11 -47 -11 -20 0 -15 31 9 57 34 36 1 29 -62 -14z"/>
<path d="M2065 1398 c-57 -64 -118 -175 -131 -238 -6 -34 -6 -35 13 -17 11 9
28 17 37 17 20 0 20 -2 -8 -125 -18 -80 -21 -257 -5 -325 15 -64 62 -159 103
-205 l35 -40 -6 37 c-4 30 -2 39 12 45 14 5 31 -7 69 -50 124 -137 299 -201
486 -178 147 19 259 73 364 176 64 63 176 219 176 245 0 9 -34 44 -75 79 -117
100 -108 97 -140 50 -42 -60 -146 -153 -201 -180 -146 -70 -306 -6 -364 147
-19 50 -21 73 -17 149 6 108 28 170 97 269 38 55 46 72 34 74 -27 6 -58 -6
-122 -48 -35 -22 -64 -40 -66 -40 -2 0 3 35 10 77 8 42 12 78 10 80 -7 7 -97
-65 -175 -141 l-83 -81 6 65 c18 202 18 220 8 220 -6 0 -36 -28 -67 -62z"/>
<path d="M3715 1448 c-46 -17 -83 -46 -126 -100 l-39 -50 1 -146 c2 -179 6
-206 37 -210 29 -4 52 14 52 42 0 13 -11 56 -25 96 -14 40 -24 75 -22 76 2 2
39 -18 83 -44 l79 -47 120 -6 c66 -4 128 -10 139 -14 18 -8 18 0 14 198 -2
113 -7 209 -10 213 -6 6 -25 -4 -73 -40 -8 -6 -31 0 -66 17 -56 29 -111 33
-164 15z"/>
<path d="M2809 1380 c-11 -31 5 -60 66 -118 59 -56 63 -64 74 -124 6 -34 19
-74 29 -88 10 -14 80 -78 156 -143 75 -65 144 -130 153 -144 13 -20 19 -58 23
-157 4 -93 11 -140 22 -162 17 -32 91 -104 107 -104 5 0 3 17 -5 38 -7 20 -13
51 -13 67 -1 37 37 122 47 109 5 -5 16 -35 25 -66 22 -72 92 -152 162 -184 38
-18 67 -24 126 -24 91 0 157 18 224 62 l50 32 -58 8 c-33 4 -82 18 -110 31
l-52 24 65 8 c35 4 82 13 102 21 135 47 212 172 188 303 -22 123 -119 202
-275 225 l-39 5 30 -18 c50 -31 74 -72 74 -129 0 -85 -57 -135 -172 -151 -72
-10 -86 -6 -64 18 60 67 59 194 -3 263 l-28 31 -6 -40 c-13 -78 -87 -121 -158
-90 -19 8 -95 65 -169 127 -153 126 -186 146 -259 156 -62 8 -79 22 -87 75 -8
49 -29 64 -106 78 -64 11 -105 34 -110 59 -3 14 -5 14 -9 2z"/>
<path d="M3857 913 c-9 -34 -6 -133 4 -133 19 0 59 49 59 73 0 25 -34 77 -50
77 -5 0 -11 -8 -13 -17z"/>
</g>
</svg>
